<svg xmlns="http://www.w3.org/2000/svg" viewBox="0 0 2400 600" preserveAspectRatio="none" style="width:100%;height:100%">
  <path d="M0,120 C100,90 200,150 300,120 C400,90 500,60 600,100 C700,140 800,160 900,130 C1000,100 1100,70 1200,110 C1300,150 1400,170 1500,140 C1600,110 1700,80 1800,120 C1900,160 2000,150 2100,120 C2200,90 2300,100 2400,120 C2300,100 2200,90 2100,120 C2000,150 1900,160 1800,120 C1700,80 1600,110 1500,140 C1400,170 1300,150 1200,110 C1100,70 1000,100 900,130 C800,160 700,140 600,100 C500,60 400,90 300,120 C200,150 100,90 0,120 Z"
        fill="none" stroke="rgba(120,210,255,0.4)" stroke-width="2">
    <animateTransform attributeName="transform" type="translate" from="0,0" to="-1200,0" dur="12s" repeatCount="indefinite"/>
  </path>
</svg>
