<svg version="1.1" xmlns="http://www.w3.org/2000/svg" xmlns:xlink="http://www.w3.org/1999/xlink" width="1560" height="804"><defs/><g><path fill="none" stroke="#02063B" paint-order="fill stroke markers" d=" M 20 419.6863728868064 L 21 420.5251140503632 L 22 421.35726049534367 L 23 422.18251598758684 L 24 423.00058674602826 L 25 423.8111815472826 L 26 424.6140118293157 L 27 425.4087917941692 L 28 426.1952385097011 L 29 426.9730720103063 L 30 427.742015396581 L 31 428.50179493389567 L 32 429.25214014984095 L 33 429.99278393051304 L 34 430.72346261560267 L 35 431.4439160922552 L 36 432.15388788766774 L 37 432.8531252603902 L 38 433.5413792902982 L 39 434.2184049672061 L 40 434.883961278087 L 41 435.537811292871 L 42 436.17972224878946 L 43 436.8094656332353 L 44 437.42681726511125 L 45 438.03155737463544 L 46 438.6234706815767 L 47 439.20234647189193 L 48 439.7679786727376 L 49 440.32016592582954 L 50 440.85871165912357 L 51 441.3834241567932 L 52 441.89411662747796 L 53 442.390607270779 L 54 442.8727193419779 L 55 443.3402812149554 L 56 443.7931264432885 L 57 444.2310938195033 L 58 444.654027432463 L 59 445.0617767228703 L 60 445.4541965368648 L 61 445.83114717769575 L 62 446.19249445545296 L 63 446.5381097348362 L 64 446.8678699809484 L 65 447.1816578030941 L 66 447.47936149656937 L 67 447.76087508242733 L 68 448.02609834520547 L 69 448.2749368686009 L 70 448.50730206908173 L 71 448.72311122742144 L 72 448.92228751814616 L 73 449.10476003688353 L 74 449.27046382560394 L 75 449.4193398957445 L 76 449.55133524920853 L 77 449.66640289723216 L 78 449.7645018771119 L 79 449.8455972667865 L 80 449.9096601972693 L 81 449.9566678629248 L 82 449.9866035295874 L 83 449.99945654051857 L 84 449.99522232020047 L 85 449.9739023759647 L 86 449.935504297456 L 87 449.88004175393013 L 88 449.8075344893877 L 89 449.71800831554606 L 90 449.61149510265 L 91 449.4880327681268 L 92 449.34766526308783 L 93 449.1904425566825 L 94 449.01642061831 L 95 448.8256613976948 L 96 448.618232802833 L 97 448.39420867581845 L 98 448.15366876655537 L 99 447.89669870436853 L 100 447.62338996752027 L 101 447.3338398506453 L 102 447.0281514301149 L 103 446.7064335273431 L 104 446.36880067004745 L 105 446.01537305147855 L 106 445.6462764876327 L 107 445.2616423724631 L 108 444.86160763110473 L 109 444.4463146711311 L 110 444.01591133185866 L 111 443.57055083171775 L 112 443.1103917137087 L 113 442.6355977889624 L 114 442.1463380784257 L 115 441.6427867526916 L 116 441.12512306999713 L 117 440.59353131240886 L 118 440.0482007202214 L 119 439.48932542458977 L 120 438.9171043784209 L 121 438.3317412855492 L 122 437.73344452822005 L 123 437.12242709290837 L 124 436.49890649449804 L 125 435.86310469884916 L 126 435.2152480437808 L 127 434.5555671584974 L 128 433.884296881488 L 129 433.2016761769258 L 130 432.5079480496004 L 131 431.8033594584107 L 132 431.08816122845053 L 133 430.3626079617181 L 134 429.6269579464805 L 135 428.8814730653263 L 136 428.12641870193846 L 137 427.362063646621 L 138 426.58868000061256 L 139 425.8065430792222 L 140 425.0159313138198 L 141 424.2171261527184 L 142 423.4104119609815 L 143 422.59607591919274 L 144 421.7744079212232 L 145 420.94570047103224 L 146 420.1102485785401 L 147 419.26834965460745 L 148 418.420303405161 L 149 417.56641172450156 L 150 416.7069785878335 L 151 415.84230994305295 L 152 414.97271360183447 L 153 414.0984991300532 L 154 413.21997773758363 L 155 412.3374621675122 L 156 411.45126658480484 L 157 410.5617064644678 L 158 409.6690984792425 L 159 408.7737603868736 L 160 407.87601091699133 L 161 406.9761696576473 L 162 406.0745569415451 L 163 405.1714937320058 L 164 404.2673015087086 L 165 403.36230215324815 L 166 402.45681783454853 L 167 401.55117089417485 L 168 400.6456837315835 L 169 399.74067868935214 L 170 398.8364779384291 L 171 397.9334033634448 L 172 397.0317764481245 L 173 396.1319181608439 L 174 395.2341488403684 L 175 394.3387880818162 L 176 393.4461546228863 L 177 392.55656623039187 L 178 391.6703395871387 L 179 390.7877901791904 L 180 389.9092321835585 L 181 389.0349783563601 L 182 388.16533992147953 L 183 387.3006264597768 L 184 386.4411457988807 L 185 385.58720390360554 L 186 384.7391047670314 L 187 383.89715030228626 L 188 383.0616402350688 L 189 382.23287199694914 L 190 381.4111406194872 L 191 380.5967386292049 L 192 379.78995594344985 L 193 378.99107976718904 L 194 378.2003944907665 L 195 377.4181815886641 L 196 376.64471951930017 L 197 375.88028362590137 L 198 375.1251460384838 L 199 374.37957557697837 L 200 373.6438376555334 L 201 372.9181941880311 L 202 372.20290349484907 L 203 371.4982202109011 L 204 370.80439519499066 L 205 370.1216754405078 L 206 369.4503039875026 L 207 368.7905198361659 L 208 368.14255786174806 L 209 367.506648730946 L 210 366.8830188197888 L 211 366.2718901330506 L 212 365.67348022521946 L 213 365.0880021230505 L 214 364.51566424973106 L 215 363.9566703506846 L 216 363.4112194210395 L 217 362.8795056347894 L 218 362.36171827566955 L 219 361.85804166977414 L 220 361.3686551199382 L 221 360.89373284190805 L 222 360.4334439023228 L 223 359.9879521585282 L 224 359.5574162002458 L 225 359.14198929311675 L 226 358.7418193241411 L 227 358.3570487490316 L 228 357.98781454150156 L 229 357.63424814450354 L 230 357.2964754234373 L 231 356.9746166213433 L 232 356.66878631609757 L 233 356.3790933796233 L 234 356.10564093913405 L 235 355.8485263404212 L 236 355.6078411132002 L 237 355.3836709385275 L 238 355.1760956182984 L 239 354.98518904683925 L 240 354.8110191846013 L 241 354.65364803396824 L 242 354.5131316171834 L 243 354.3895199564072 L 244 354.28285705590923 L 245 354.1931808864038 L 246 354.12052337153244 L 247 354.0649103764997 L 248 354.0263616988652 L 249 354.00489106149615 L 250 354.0005061076822 L 251 354.01320839841435 L 252 354.04299341182934 L 253 354.0898505448193 L 254 354.1537631168065 L 255 354.23470837568135 L 256 354.3326575059018 L 257 354.44757563875146 L 258 354.5794218647523 L 259 354.7281492482281 L 260 354.8937048440128 L 261 355.07602971629854 L 262 355.275058959616 L 263 355.49072172193985 L 264 355.7229412299115 L 265 355.97163481616934 L 266 356.23671394877726 L 267 356.518084262741 L 268 356.8156455936011 L 269 357.1292920130901 L 270 357.4589118668417 L 271 357.8043878141385 L 272 358.16559686968384 L 273 358.5424104473831 L 274 358.93469440611875 L 275 359.34230909750306 L 276 359.7651094155912 L 277 360.2029448485373 L 278 360.65565953217464 L 279 361.12309230550176 L 280 361.60507676805355 L 281 362.10144133913803 L 282 362.6120093189168 L 283 363.1365989513084 L 284 363.6750234886908 L 285 364.2270912583819 L 286 364.7926057308723 L 287 365.3713655897875 L 288 365.96316480355415 L 289 366.5677926987451 L 290 367.1850340350761 L 291 367.8146690820291 L 292 368.45647369707376 L 293 369.1102194054591 L 294 369.7756734815482 L 295 370.45259903166556 L 296 371.14075507842824 L 297 371.8398966465314 L 298 372.54977484995595 L 299 373.27013698056953 L 300 374.0007265980872 L 301 374.7412836213614 L 302 375.49154442096744 L 303 376.2512419130527 L 304 377.0201056544149 L 305 377.79786193877726 L 306 378.5842338942239 L 307 379.3789415817635 L 308 380.18170209498396 L 309 380.9922296607637 L 310 381.8102357410036 L 311 382.63542913534303 L 312 383.46751608482356 L 313 384.30620037646395 L 314 385.151183448708 L 315 386.0021644977093 L 316 386.85884058441343 L 317 387.7209067424009 L 318 388.58805608645156 L 319 389.45997992179167 L 320 390.336367853986 L 321 391.21690789943426 L 322 392.10128659643374 L 323 392.98918911676765 L 324 393.8802993777804 L 325 394.774300154899 L 326 395.67087319456164 L 327 396.56969932751167 L 328 397.47045858241836 L 329 398.37283029978255 L 330 399.27649324608797 L 331 400.1811257281563 L 332 401.08640570766596 L 333 401.9920109157941 L 334 402.8976189679405 L 335 403.8029074784924 L 336 404.70755417559 L 337 405.61123701585143 L 338 406.5136342990163 L 339 407.4144247824672 L 340 408.3132877955881 L 341 409.2099033539192 L 342 410.1039522730679 L 343 410.99511628233415 L 344 411.88307813801146 L 345 412.76752173632144 L 346 413.64813222594336 L 347 414.5245961200971 L 348 415.39660140814084 L 349 416.26383766664304 L 350 417.1259961698898 L 351 417.98276999978685 L 352 418.8338541551194 L 353 419.6789456601284 L 354 420.5177436723667 L 355 421.34994958979496 L 356 422.17526715708067 L 357 422.99340257106144 L 358 423.80406458533525 L 359 424.60696461394105 L 360 425.4018168340914 L 361 426.18833828792225 L 362 426.9662489832228 L 363 427.7352719931087 L 364 428.49513355460533 L 365 429.2455631661038 L 366 429.98629368365647 L 367 430.7170614160768 L 368 431.43760621881034 L 369 432.14767158654314 L 370 432.84700474451455 L 371 433.5353567385019 L 372 434.21248252344526 L 373 434.87814105068077 L 374 435.53209535375055 L 375 436.1741126327605 L 376 436.803964337254 L 377 437.42142624757304 L 378 438.0262785546779 L 379 438.6183059383965 L 380 439.1972976440758 L 381 439.7630475576077 L 382 440.3153542788037 L 383 440.8540211930905 L 384 441.37885654150256 L 385 441.8896734889461 L 386 442.38629019071 L 387 442.86852985720043 L 388 443.3362208168759 L 389 443.78919657736003 L 390 444.227295884711 L 391 444.6503627808262 L 392 445.058246658961 L 393 445.4508023173434 L 394 445.82789001086377 L 395 446.18937550082273 L 396 446.5351301027183 L 397 446.865030732056 L 398 447.17895994816587 L 399 447.47680599600926 L 400 447.75846284596304 L 401 448.02383023156415 L 402 448.27281368520386 L 403 448.5053245717568 L 404 448.72128012013394 L 405 448.9206034527484 L 406 449.10322361288263 L 407 449.26907558994833 L 408 449.4181003426295 L 409 449.5502448199002 L 410 449.6654619799103 L 411 449.7637108067317 L 412 449.84495632495964 L 413 449.9091696121633 L 414 449.9563278091821 L 415 449.98641412826305 L 416 449.9994178590372 L 417 449.9953343723322 L 418 449.97416512182036 L 419 449.93591764350117 L 420 449.88060555301854 L 421 449.80824854081374 L 422 449.7188723651159 L 423 449.61250884277234 L 424 449.48919583792235 L 425 449.3489772485176 L 426 449.1919029906955 L 427 449.0180289810092 L 428 448.82741711652227 L 429 448.620135252774 L 430 448.39625717962355 L 431 448.1558625949817 L 432 447.89903707643964 L 433 447.62587205080365 L 434 447.336464761549 L 435 447.0309182342021 L 436 446.7093412396647 L 437 446.37184825549275 L 438 446.0185594251436 L 439 445.64960051520677 L 440 445.2651028706321 L 441 444.8652033679729 L 442 444.45004436665914 L 443 444.0197736583197 L 444 443.5745444141698 L 445 443.1145151304843 L 446 442.6398495721746 L 447 442.1507167144906 L 448 441.6472906828674 L 449 441.12975069093847 L 450 440.5982809767382 L 451 440.0530707371152 L 452 439.4943140603803 L 453 438.9222098572137 L 454 438.336961789855 L 455 437.7387781996018 L 456 437.12787203264315 L 457 436.5044607642525 L 458 435.8687663213697 L 459 435.22101500359776 L 460 434.56143740264224 L 461 433.89026832022415 L 462 433.20774668449263 L 463 432.5141154649699 L 464 431.80962158605695 L 465 431.09451583913125 L 466 430.3690527932679 L 467 429.6334907046167 L 468 428.8880914244652 L 469 428.1331203060236 L 470 427.36884610996157 L 471 426.59554090873297 L 472 425.8134799897214 L 473 425.0229417572408 L 474 424.2242076334272 L 475 423.417561958056 L 476 422.60329188731964 L 477 421.7816872916043 L 478 420.953040652299 L 479 420.1176469576759 L 480 419.27580359787805 L 481 418.42781025905185 L 482 417.57396881666267 L 483 416.7145832280307 L 484 415.8499594241254 L 485 414.9804052006586 L 486 414.1062301085121 L 487 413.22774534354147 L 488 412.3452636357944 L 489 411.4590991381822 L 490 410.56956731464527 L 491 409.6769848278516 L 492 408.78166942646874 L 493 407.8839398320492 L 494 406.98411562556913 L 495 406.08251713366155 L 496 405.1794653145839 L 497 404.27528164396045 L 498 403.37028800034136 L 499 402.4648065506172 L 500 401.55915963533164 L 501 400.6536696539325 L 502 399.7486589500007 L 503 398.84444969649996 L 504 397.9413637810877 L 505 397.0397226915261 L 506 396.13984740123686 L 507 395.24205825503816 L 508 394.3466748551059 L 509 393.45401594719925 L 510 392.5643993071908 L 511 391.6781416279421 L 512 390.79555840656525 L 513 389.91696383210905 L 514 389.04267067371205 L 515 388.1729901692601 L 516 387.3082319145895 L 517 386.4487037532748 L 518 385.5947116670398 L 519 384.74655966683196 L 520 383.9045496845983 L 521 383.06898146580073 L 522 382.2401524627109 L 523 381.4183577285203 L 524 380.6038898123048 L 525 379.79703865488136 L 526 378.9980914855916 L 527 378.20733272005236 L 528 377.4250438589069 L 529 376.6515033876139 L 530 375.88698667731023 L 531 375.1317658867819 L 532 374.3861098655789 L 533 373.65028405830805 L 534 372.92455041013767 L 535 372.2091672735487 L 536 371.5043893163637 L 537 370.8104674310885 L 538 370.1276486455977 L 539 369.45617603519514 L 540 368.79628863608247 L 541 368.148221360265 L 542 367.51220491192566 L 543 366.88846570529745 L 544 366.27722578406224 L 545 365.67870274230626 L 546 365.093109647059 L 547 364.520654962444 L 548 363.9615424754679 L 549 363.4159712234752 L 550 362.8841354232928 L 551 362.36622440209146 L 552 361.86242252998755 L 553 361.3729091544093 L 554 360.89785853625165 L 555 360.4374397878411 L 556 359.9918168127338 L 557 359.5611482473683 L 558 359.145587404592 L 559 358.74528221908446 L 560 358.3603751946941 L 561 357.9910033537083 L 562 357.63729818807565 L 563 357.29938561259587 L 564 356.9773859200958 L 565 356.6714137386069 L 566 356.3815779905585 L 567 356.10798185400336 L 568 355.850722725887 L 569 355.60989218737564 L 570 355.3855759712547 L 571 355.1778539314086 L 572 354.986800014394 L 573 354.81248223311553 L 574 354.6549626426141 L 575 354.51429731797606 L 576 354.39053633437106 L 577 354.28372374922606 L 578 354.1938975865411 L 579 354.12108982335354 L 580 354.0653263783545 L 581 354.026627102662 L 582 354.00500577275454 L 583 354.00047008556623 L 584 354.0130216557475 L 585 354.0426560150897 L 586 354.0893626141161 L 587 354.15312482583727 L 588 354.23391995167 L 589 354.3317192295178 L 590 354.44648784400994 L 591 354.57818493889516 L 592 354.7267636315861 L 593 354.89217102984895 L 594 355.0743482506322 L 595 355.27323044102883 L 596 355.4887468013626 L 597 355.7208206103922 L 598 355.96936925262315 L 599 356.23430424771755 L 600 356.51553128199254 L 601 356.8129502419945 L 602 357.12645525013806 L 603 357.45593470239794 L 604 357.8012713080379 L 605 358.16234213136516 L 606 358.53901863549424 L 607 358.931166728104 L 608 359.3386468091736 L 609 359.7613138206778 L 610 360.1990172982262 L 611 360.6516014246267 L 612 361.1189050853546 L 613 361.60076192590736 L 614 362.0970004110249 L 615 362.6074438857539 L 616 363.13191063833517 L 617 363.67021396489065 L 618 364.22216223588754 L 619 364.78755896435666 L 620 365.366202875839 L 621 365.95788798003707 L 622 366.5624036441454 L 623 367.17953466783257 L 624 367.8090613598506 L 625 368.4507596162422 L 626 369.10440100011874 L 627 369.7697528229816 L 628 370.4465782275562 L 629 371.13463627211024 L 630 371.83368201622653 L 631 372.543466607998 L 632 373.26373737261713 L 633 373.9942379023241 L 634 374.7347081476854 L 635 375.4848845101685 L 636 376.2444999359791 L 637 377.0132840111298 L 638 377.7909630577039 L 639 378.57726023128123 L 640 379.37189561949197 L 641 380.17458634166155 L 642 380.98504664951344 L 643 381.80298802889143 L 644 382.6281193024675 L 645 383.4601467333976 L 646 384.2987741298884 L 647 385.1437029506376 L 648 385.99463241111175 L 649 386.8512595906212 L 650 387.713279540157 L 651 388.58038539094855 L 652 389.45226846370514 L 653 390.32861837850265 L 654 391.2091231652746 L 655 392.0934693748697 L 656 392.9813421906365 L 657 393.8724255404937 L 658 394.7664022094485 L 659 395.66295395252126 L 660 396.56176160803665 L 661 397.46250521124165 L 662 398.36486410820913 L 663 399.26851706998644 L 664 400.1731424069498 L 665 401.0784180833211 L 666 401.98402183180946 L 667 402.8896312683343 L 668 403.79492400678987 L 669 404.69957777381137 L 670 405.6032705235002 L 671 406.50568055206827 L 672 407.40648661236094 L 673 408.30536802821695 L 674 409.2020048086255 L 675 410.0960777616391 L 676 410.98726860800195 L 677 411.87526009445384 L 678 412.7597361066683 L 679 413.64038178178544 L 680 414.51688362049964 L 681 415.3889295986612 L 682 416.2562092783536 L 683 417.1184139184053 L 684 417.97523658429793 L 685 418.8263722574316 L 686 419.67151794370784 L 687 420.5103727813912 L 688 421.3426381482135 L 689 422.16801776767875 L 690 422.98621781453477 L 691 423.7969470193712 L 692 424.5999167723076 L 693 425.39484122573583 L 694 426.18143739607757 L 695 426.95942526452365 L 696 427.7285278767173 L 697 428.4884714413462 L 698 429.2389854276094 L 699 429.9798026615229 L 700 430.71065942103013 L 701 431.4312955298841 L 702 432.14145445026696 L 703 432.84088337411436 L 704 433.5293333131123 L 705 434.2065591873335 L 706 434.87231991248336 L 707 435.52637848572306 L 708 436.16850207003944 L 709 436.7984620771324 L 710 437.4160342487896 L 711 438.0209987367195 L 712 438.6131401808151 L 713 439.19224778581906 L 714 439.7581153963648 L 715 440.31054157036493 L 716 440.8493296507223 L 717 441.37428783533784 L 718 441.8852292453895 L 719 442.3819719918589 L 720 442.86433924028194 L 721 443.33215927369935 L 722 443.7852655537861 L 723 444.22349678013705 L 724 444.6466969476879 L 725 445.054715402251 L 726 445.44740689414675 L 727 445.82463162991047 L 728 446.1862553220574 L 729 446.532149236887 L 730 446.8621902403114 L 731 447.17626084168893 L 732 447.47424923564955 L 733 447.7560493418966 L 734 448.0215608429695 L 735 448.2706892199561 L 736 448.5033457861402 L 737 448.7194477185724 L 738 448.9189180875549 L 739 449.101685884027 L 740 449.26768604484363 L 741 449.4168594759371 L 742 449.54915307335375 L 743 449.6645197421585 L 744 449.76291841319994 L 745 449.8443140577305 L 746 449.90867769987625 L 747 449.955986426952 L 748 449.98622339761783 L 749 449.9993778478747 L 750 449.9954450948959 L 751 449.97442653869444 L 752 449.9363296616243 L 753 449.8811680257172 L 754 449.8089612678544 L 755 449.71973509277626 L 756 449.6135212639317 L 757 449.49035759217094 L 758 449.35028792228485 L 759 449.1933621173972 L 760 449.01963604121374 L 761 448.8291715381355 L 762 448.62203641124285 L 763 448.39830439815836 L 764 448.1580551447973 L 765 447.9013741770144 L 766 447.62835287015787 L 767 447.3390884165408 L 768 447.0336837908417 L 769 446.712247713447 L 770 446.37489461174795 L 771 446.02174457940544 L 772 445.6529233335985 L 773 445.2685621702702 L 774 444.86879791738806 L 775 444.453772886235 L 776 444.0236348207479 L 777 443.5785368449228 L 778 443.1186374083045 L 779 442.64410022958066 L 780 442.1550942382994 L 781 441.6517935147328 L 782 441.1343772279064 L 783 440.603029571817 L 784 440.0579396998619 L 785 439.4993016575025 L 786 438.92731431318657 L 787 438.3421812875534 L 788 437.7441108809472 L 789 437.13331599926465 L 790 436.5100140781634 L 791 435.8744270056569 L 792 435.22678104312536 L 793 434.5673067447694 L 794 433.89623887553523 L 795 433.2138163275416 L 796 432.52028203503664 L 797 431.81588288791636 L 798 431.10086964383487 L 799 430.37549683893747 L 800 429.64002269724915 L 801 428.89470903874957 L 802 428.1398211861683 L 803 427.3756278705337 L 804 426.60240113550714 L 805 425.8204162405389 L 806 425.0299515628796 L 807 424.2312884984805 L 808 423.42471136182064 L 809 422.61050728469365 L 810 421.7889661139926 L 811 420.96038030852816 L 812 420.12504483491625 L 813 419.28325706257385 L 814 418.4353166578591 L 815 417.5815254773933 L 816 416.72218746060406 L 817 415.857608521526 L 818 414.9880964398992 L 819 414.1139607516038 L 820 413.2355126384681 L 821 412.3530648174919 L 822 411.46693142952347 L 823 410.57742792742835 L 824 409.68487096379266 L 825 408.7895782781979 L 826 407.89186858410994 L 827 406.99206145542087 L 828 406.09047721268405 L 829 405.1874368090844 L 830 404.2832617161825 L 831 403.3782738094747 L 832 402.47279525380964 L 833 401.56714838870073 L 834 400.6616556135776 L 835 399.7566392730159 L 836 398.852421541986 L 837 397.949324311163 L 838 397.04766907233756 L 839 396.14777680396793 L 840 395.2499678569166 L 841 394.3545618404083 L 842 393.4618775082532 L 843 392.5722326453749 L 844 391.68594395468193 L 845 390.8033269443258 L 846 389.9246958153842 L 847 389.05036335000824 L 848 388.18064080007684 L 849 387.315837776394 L 850 386.45626213847135 L 851 385.6022198849337 L 852 384.7540150445878 L 853 383.9119495681909 L 854 383.0763232209603 L 855 382.2474334758606 L 856 381.42557540770645 L 857 380.6110415881204 L 858 379.8041219813798 L 859 379.0051038411936 L 860 378.2142716084434 L 861 377.43190680992586 L 862 376.65828795813235 L 863 375.8936904521025 L 864 375.13838647938445 L 865 374.3926449191402 L 866 373.6567312464273 L 867 372.93090743769307 L 868 372.21543187751473 L 869 371.5105592666164 L 870 370.8165405311996 L 871 370.13362273361633 L 872 369.46204898441744 L 873 368.80205835580904 L 874 368.1538857965447 L 875 367.5177620482872 L 876 366.89391356346675 L 877 366.28256242466716 L 878 365.6839262655666 L 879 365.09821819346314 L 880 364.5256467134106 L 881 363.9664156539936 L 882 363.4207240947667 L 883 362.88876629538487 L 884 362.37073162644924 L 885 361.8668045020931 L 886 361.3771643143332 L 887 360.90198536920786 L 888 360.44143682472645 L 889 359.9956826306513 L 890 359.5648814701329 L 891 359.14918670322123 L 892 358.7487463122712 L 893 358.3637028492626 L 894 357.99419338505345 L 895 357.6403494605845 L 896 357.30229704005194 L 897 356.9801564660659 L 898 356.6740424168098 L 899 356.3840638652164 L 900 356.11032404017453 L 901 355.8529203897813 L 902 355.61194454665105 L 903 355.3874822952959 L 904 355.17961354158706 L 905 354.9884122843096 L 906 354.81394658881953 L 907 354.65627856281344 L 908 354.5154643342189 L 909 354.39155403121356 L 910 354.28459176438037 L 911 354.1946156110042 L 912 354.12165760151737 L 913 354.0657437080968 L 914 354.0268938354185 L 915 354.0051218135714 L 916 354.00043539313447 L 917 354.01283624241705 L 918 354.0423199468656 L 919 354.0888760106346 L 920 354.15248786032333 L 921 354.23313285087573 L 922 354.33078227364166 L 923 354.445401366597 L 924 354.57694932671836 L 925 354.7253793245086 L 926 354.8906385206674 L 927 355.0726680849015 L 928 355.2714032168679 L 929 355.48677316924125 L 930 355.7187012728999 L 931 355.9671049642186 L 932 356.23189581446036 L 933 356.51297956125603 L 934 356.8102561421606 L 935 357.1236197302742 L 936 357.45295877191506 L 937 357.7981560263316 L 938 358.15908860743843 L 939 358.53562802756255 L 940 358.92764024318325 L 941 359.3349857026501 L 942 359.75751939586155 L 943 360.1950909058869 L 944 360.64754446251305 L 945 361.11471899769646 L 946 361.5964482029018 L 947 362.0925605883057 L 948 362.60287954384467 L 949 363.1272234020869 L 950 363.6654055029032 L 951 364.2172342599158 L 952 364.7825132287011 L 953 365.3610411767209 L 954 365.9526121549595 L 955 366.5570155712388 L 956 367.17403626518643 L 957 367.80345458483043 L 958 368.44504646479254 L 959 369.0985835060531 L 960 369.7638330572581 L 961 370.4405582975405 L 962 371.1285183208255 L 963 371.82746822158975 L 964 372.5371591820458 L 965 373.2573385607174 L 966 373.98774998237724 L 967 374.72813342931323 L 968 375.47822533389194 L 969 376.2377586723851 L 970 377.0064630600274 L 971 377.7840648472698 L 972 378.57028721719576 L 973 379.3648502840647 L 974 380.1674711929474 L 975 380.97786422042 L 976 381.7957408762773 L 977 382.62081000623226 L 978 383.45277789556326 L 979 384.2913483736727 L 980 385.1362229195208 L 981 385.9871007678952 L 982 386.8436790164797 L 983 387.7056527336841 L 984 388.572715067196 L 985 389.4445573532162 L 986 390.3208692263403 L 987 391.201338730044 L 988 392.08565242773653 L 989 392.9734955143404 L 990 393.86455192835723 L 991 394.7585044643833 L 992 395.65503488602985 L 993 396.5538240392118 L 994 397.45455196576296 L 995 398.35689801733633 L 996 399.2605409695526 L 997 400.1651591363509 L 998 401.07043048450595 L 999 401.97603274826747 L 1000 402.8816435440835 L 1001 403.7869404853643 L 1002 404.691601297249 L 1003 405.59530393133105 L 1004 406.4977266803037 L 1005 407.39854829248407 L 1006 408.29744808617437 L 1007 409.1941060638217 L 1008 410.0882030259325 L 1009 410.97942068470417 L 1010 411.86744177733163 L 1011 412.7519501789486 L 1012 413.6326310151653 L 1013 414.5091707741591 L 1014 415.38125741828117 L 1015 416.2485804951384 L 1016 417.1108312481101 L 1017 417.9677027262626 L 1018 418.81888989361937 L 1019 419.6640897377504 L 1020 420.5030013776409 L 1021 421.3353261708018 L 1022 422.1607678195819 L 1023 422.9790324766475 L 1024 423.7898288495875 L 1025 424.5928683046107 L 1026 425.38786496929583 L 1027 426.17453583435804 L 1028 426.95260085439793 L 1029 427.7217830475935 L 1030 428.48180859430266 L 1031 429.23240693454005 L 1032 429.97331086429216 L 1033 430.7042566306401 L 1034 431.4249840256513 L 1035 432.1352364790114 L 1036 432.8347611493592 L 1037 433.52330901429633 L 1038 434.20063495903474 L 1039 434.86649786365615 L 1040 435.520660688947 L 1041 436.1628905607816 L 1042 436.7929588530229 L 1043 437.41064126891024 L 1044 438.01571792090647 L 1045 438.6079734089755 L 1046 439.1871968972618 L 1047 439.7531821891457 L 1048 440.30572780064654 L 1049 440.844637032149 L 1050 441.36971803842556 L 1051 441.8807838969312 L 1052 442.37765267434537 L 1053 442.86014749133847 L 1054 443.3280965855383 L 1055 443.78133337267576 L 1056 444.21969650588676 L 1057 444.64302993314965 L 1058 445.0511829528382 L 1059 445.444010267369 L 1060 445.8213720349261 L 1061 446.1831339192432 L 1062 446.529167137425 L 1063 446.8593485057933 L 1064 447.1735604837381 L 1065 447.47169121556107 L 1066 447.7536345702949 L 1067 448.0192901794844 L 1068 448.26856347291664 L 1069 448.5013657122867 L 1070 448.71761402278753 L 1071 448.91723142261236 L 1072 449.10014685035924 L 1073 449.26629519032826 L 1074 449.4156172957017 L 1075 449.5480600095995 L 1076 449.66357618400303 L 1077 449.76212469653865 L 1078 449.843670465117 L 1079 449.90818446042175 L 1080 449.9556437162439 L 1081 449.98603133765704 L 1082 449.99933650703224 L 1083 449.9955544878886 L 1084 449.97468662657974 L 1085 449.936740351814 L 1086 449.8817291720105 L 1087 449.80967267049 L 1088 449.7205964985033 L 1089 449.61453236610015 L 1090 449.49151803084044 L 1091 449.35159728435315 L 1092 449.19481993674714 L 1093 449.02124179887915 L 1094 448.8309246624858 L 1095 448.6239362781868 L 1096 448.40035033136616 L 1097 448.1602464159412 L 1098 447.9037100060282 L 1099 447.6308324255143 L 1100 447.3417108155479 L 1101 447.03644809995694 L 1102 446.7151529486095 L 1103 446.37793973872874 L 1104 446.0249285141758 L 1105 445.65624494271583 L 1106 445.2720202712814 L 1107 444.87239127925073 L 1108 444.4575002297553 L 1109 444.02749481903624 L 1110 443.58252812386604 L 1111 443.1227585470552 L 1112 442.6483497610628 L 1113 442.1594706497307 L 1114 441.6562952481633 L 1115 441.1390026807729 L 1116 440.60777709751363 L 1117 440.06280760832647 L 1118 439.504288215818 L 1119 438.93241774619804 L 1120 438.3473997784998 L 1121 437.74944257210814 L 1122 437.13875899262223 L 1123 436.51556643607705 L 1124 435.88008675155385 L 1125 435.2325461622039 L 1126 434.57317518471615 L 1127 433.9022085472559 L 1128 433.21988510590467 L 1129 432.5264477596297 L 1130 431.8221433638154 L 1131 431.1072226423855 L 1132 430.3819400985483 L 1133 429.646553924197 L 1134 428.9013259079959 L 1135 428.14652134218716 L 1136 427.3824089281497 L 1137 426.6092606807448 L 1138 425.82735183148264 L 1139 425.0369607305421 L 1140 424.2383687476821 L 1141 423.43186017207745 L 1142 422.6177221111149 L 1143 421.7962443881865 L 1144 420.9677194395164 L 1145 420.1324422100561 L 1146 419.2907100484885 L 1147 418.44282260137487 L 1148 417.58908170648414 L 1149 416.729791285343 L 1150 415.86525723504263 L 1151 414.9957873193433 L 1152 414.12169105911437 L 1153 413.24327962214807 L 1154 412.3608657123885 L 1155 411.4747634586115 L 1156 410.5852883025994 L 1157 409.6927568868473 L 1158 408.797486941842 L 1159 407.899797172954 L 1160 407.00000714698234 L 1161 406.098437178392 L 1162 405.1954082152864 L 1163 404.29124172515355 L 1164 403.3862595804271 L 1165 402.4807839439048 L 1166 401.5751371540606 L 1167 400.66964161029756 L 1168 399.7646196581768 L 1169 398.8603934746662 L 1170 397.95728495345026 L 1171 397.0556155903385 L 1172 396.1557063688175 L 1173 395.2578776457847 L 1174 394.36244903750463 L 1175 393.4697393058305 L 1176 392.5800662447273 L 1177 391.69374656714194 L 1178 390.81109579225705 L 1179 389.93242813316976 L 1180 389.0580563850356 L 1181 388.18829181371785 L 1182 387.32344404497945 L 1183 386.46382095426077 L 1184 385.6097285570795 L 1185 384.7614709000924 L 1186 383.91934995285914 L 1187 383.083665500344 L 1188 382.2547150361962 L 1189 381.432793656846 L 1190 380.6181939564534 L 1191 379.811205922749 L 1192 379.0121168338008 L 1193 378.22121115574726 L 1194 377.43877044153066 L 1195 376.6650732306677 L 1196 375.9003949500924 L 1197 375.1450078161081 L 1198 374.39918073748106 L 1199 373.6631792197124 L 1200 372.9372652705214 L 1201 372.2216973065736 L 1202 371.51673006148843 L 1203 370.82261449515573 L 1204 370.1395977043981 L 1205 369.467922835007 L 1206 368.80782899518584 L 1207 368.1595511704304 L 1208 367.5233201398765 L 1209 366.8993623941457 L 1210 366.28790005471734 L 1211 365.6891507948558 L 1212 365.10332776212135 L 1213 364.5306395024927 L 1214 363.9712898861265 L 1215 363.42547803478226 L 1216 362.8933982509374 L 1217 362.37523994861795 L 1218 361.87118758596944 L 1219 361.3814205995918 L 1220 360.9061133406623 L 1221 360.4454350128683 L 1222 359.9995496121734 L 1223 359.56861586843627 L 1224 359.15278718890477 L 1225 358.7522116036052 L 1226 358.3670317126449 L 1227 357.99738463544855 L 1228 357.64340196194553 L 1229 357.305209705725 L 1230 356.9829282591769 L 1231 356.6766723506336 L 1232 356.3865510035281 L 1233 356.1126674975827 L 1234 355.8551193320431 L 1235 355.61399819096954 L 1236 355.3893899105982 L 1237 355.1813744487851 L 1238 354.9900258565414 L 1239 354.8154122516728 L 1240 354.6575957945297 L 1241 354.5166326658795 L 1242 354.3925730469065 L 1243 354.2854611013481 L 1244 354.1953349597733 L 1245 354.1222267060083 L 1246 354.0661623657152 L 1247 354.02716189712714 L 1248 354.0052391839437 L 1249 354.0004020303878 L 1250 354.0126521584283 L 1251 354.04198520716636 L 1252 354.08839073438827 L 1253 354.1518522202824 L 1254 354.23234707332045 L 1255 354.32984663829944 L 1256 354.4443162065428 L 1257 354.5757150282561 L 1258 354.7239963270338 L 1259 354.88910731651055 L 1260 355.070989219153 L 1261 355.2695772871837 L 1262 355.4848008256306 L 1263 355.71658321749334 L 1264 355.9648419510185 L 1265 356.2294886490724 L 1266 356.51042910060215 L 1267 356.8075632941742 L 1268 357.1207854535769 L 1269 357.4499840754754 L 1270 357.7950419691059 L 1271 358.1558362979938 L 1272 358.5322386236821 L 1273 358.92411495145404 L 1274 359.3313257780338 L 1275 359.7537261412475 L 1276 360.19116567162837 L 1277 360.64348864594626 L 1278 361.1105340426435 L 1279 361.59213559915656 L 1280 362.0881218711034 L 1281 362.5983162933154 L 1282 363.1225372426932 L 1283 363.6605981028617 L 1284 364.2123073306032 L 1285 364.77746852404516 L 1286 365.35588049257615 L 1287 365.94733732846765 L 1288 366.5516284801748 L 1289 367.1685388272901 L 1290 367.7978487571237 L 1291 368.4393342428831 L 1292 369.09276692342337 L 1293 369.7579141845418 L 1294 370.43453924178533 L 1295 371.12240122474304 L 1296 371.8212552627932 L 1297 372.53085257227394 L 1298 373.2509405450477 L 1299 373.9812628384265 L 1300 374.72155946642704 L 1301 375.47156689232213 L 1302 376.2310181224574 L 1303 376.99964280129655 L 1304 377.7771673076662 L 1305 378.5633148521609 L 1306 379.35780557567676 L 1307 380.1603566490385 L 1308 380.9706823736823 L 1309 381.7884942833622 L 1310 382.6135012468399 L 1311 383.44540957152435 L 1312 384.2839231080225 L 1313 385.1287433555648 L 1314 385.97956956826846 L 1315 386.8360988621991 L 1316 387.6980263231937 L 1317 388.56504511540635 L 1318 389.43684659053855 L 1319 390.3131203977135 L 1320 391.19355459395825 L 1321 392.077835755251 L 1322 392.9656490880966 L 1323 393.85667854158925 L 1324 394.75060691992223 L 1325 395.6471159953069 L 1326 396.5458866212572 L 1327 397.4465988462021 L 1328 398.3489320273849 L 1329 399.2525649450073 L 1330 400.1571759165809 L 1331 401.0624429114418 L 1332 401.9680436653895 L 1333 402.87365579540943 L 1334 403.7789569144369 L 1335 404.6836247461239 L 1336 405.58733723956476 L 1337 406.48977268394304 L 1338 407.39060982305625 L 1339 408.28952796967974 L 1340 409.18620711972665 L 1341 410.0803280661664 L 1342 410.97157251265827 L 1343 411.85962318686103 L 1344 412.7441639533782 L 1345 413.6248799262978 L 1346 414.50145758128923 L 1347 415.3735848672132 L 1348 416.2409513172084 L 1349 417.10324815921433 L 1350 417.9601684258896 L 1351 418.81140706388976 L 1352 419.65666104246185 L 1353 420.49562946132005 L 1354 421.32801365776226 L 1355 422.15351731299097 L 1356 422.97184655759844 L 1357 423.78271007618144 L 1358 424.58581921104565 L 1359 425.38088806496444 L 1360 426.16763360295494 L 1361 426.9457757530346 L 1362 427.7150375059242 L 1363 428.47514501365947 L 1364 429.22582768707764 L 1365 429.96681829214407 L 1366 430.69785304508395 L 1367 431.41867170628694 L 1368 432.12901767294875 L 1369 432.82863807041883 L 1370 433.5172838422207 L 1371 434.1947098387132 L 1372 434.8606749043604 L 1373 435.5149419635807 L 1374 436.15727810514255 L 1375 436.7874546650779 L 1376 437.40524730808437 L 1377 438.0104361073851 L 1378 438.6028056230209 L 1379 439.1821449785439 L 1380 439.7482479360869 L 1381 440.30091296978196 L 1382 440.8399433375006 L 1383 441.3651471508924 L 1384 441.8763374436944 L 1385 442.3733322382891 L 1386 442.85595461048615 L 1387 443.3240327525052 L 1388 443.7774000341378 L 1389 444.21589506206533 L 1390 444.6393617373132 L 1391 445.04764931082036 L 1392 445.4406124371041 L 1393 445.818111226001 L 1394 446.1800112924667 L 1395 446.5261838044149 L 1396 446.8565055285803 L 1397 447.1708588743881 L 1398 447.4691319358146 L 1399 447.7512185312248 L 1400 448.01701824117174 L 1401 448.2664364441442 L 1402 448.4993843502512 L 1403 448.71577903283014 L 1404 448.9155434579675 L 1405 449.09860651192207 L 1406 449.2649030264408 L 1407 449.41437380195754 L 1408 449.54696562866764 L 1409 449.66263130547 L 1410 449.76132965676976 L 1411 449.8430255471369 L 1412 449.90768989381354 L 1413 449.95529967706733 L 1414 449.98583794838595 L 1415 449.9992938365109 L 1416 449.99566255130725 L 1417 449.974945385469 L 1418 449.93714971405893 L 1419 449.882288991883 L 1420 449.8103827487008 L 1421 449.7214565822732 L 1422 449.61554214924956 L 1423 449.4926771538987 L 1424 449.35290533468634 L 1425 449.196276448705 L 1426 449.02284625396084 L 1427 448.83267648952466 L 1428 448.62583485355333 L 1429 448.40239497919026 L 1430 448.16243640835273 L 1431 447.9060445634161 L 1432 447.6333107168043 L 1433 447.3443319584979 L 1434 447.03921116147137 L 1435 446.7180569450717 L 1436 446.38098363635066 L 1437 446.02811122936646 L 1438 445.65956534246675 L 1439 445.27547717357004 L 1440 444.8759834534613 L 1441 444.4612263971169 L 1442 444.0313536530779 L 1443 443.58651825088907 L 1444 443.12687854662227 L 1445 442.6525981665033 L 1446 442.1638459486633 L 1447 441.66079588303404 L 1448 441.1436270494097 L 1449 440.61252355369675 L 1450 440.0676744623742 L 1451 439.50927373518874 L 1452 438.93752015610664 L 1453 438.3526172625495 L 1454 437.75477327293726 L 1455 437.1442010125649 L 1456 436.5211178378396 L 1457 435.8857455589037 L 1458 435.2383103606735 L 1459 434.5790427223199 L 1460 433.9081773352209 L 1461 433.2259530194136 L 1462 432.53261263857837 L 1463 431.82840301358067 L 1464 431.1135748346071 L 1465 430.388382571922 L 1466 429.6530843852793 L 1467 428.9079420320211 L 1468 428.15322077389425 L 1469 427.3891892826214 L 1470 426.6161195442563 L 1471 425.8342867623605 L 1472 425.0439692600341 L 1473 424.2454483808358 L 1474 423.4390083886283 L 1475 422.62493636638345 L 1476 421.80352211398446 L 1477 420.9750580450603 L 1478 420.13983908289055 L 1479 419.2981625554154 L 1480 418.45032808939106 L 1481 417.596637503726 L 1482 416.73739470203697 L 1483 415.8729055644636 L 1484 415.0034778387777 L 1485 414.1294210308294 L 1486 413.2510462943667 L 1487 412.3686663202681 L 1488 411.4825952252294 L 1489 410.5931484399405 L 1490 409.70064259679685 L 1491 408.8053954171819 L 1492 407.9077255983617 L 1493 407.00795270003346 L 1494 406.1063970305649 L 1495 405.2033795329691 L 1496 404.29922167065246 L 1497 403.39424531297755 L 1498 402.4887726206812 L 1499 401.58312593119007 L 1500 400.6776276438711 L 1501 399.7726001052622 L 1502 398.86836549432013 L 1503 397.9652457077289 L 1504 397.0635622453089 L 1505 396.1636360955658 L 1506 395.2657876214231 L 1507 394.3703364461769 L 1508 393.47760133971326 L 1509 392.58790010503094 L 1510 391.70154946510604 L 1511 390.81886495014345 L 1512 389.9401607852514 L 1513 389.06574977858116 L 1514 388.1959432099711 L 1515 387.33105072013524 L 1516 386.4713802004339 L 1517 385.61723768326885 L 1518 384.7689272331392 L 1519 383.926750838398 L 1520 383.0910083037485 L 1521 382.2619971435163 L 1522 381.44001247573874 L 1523 380.62534691710596 L 1524 379.8182904787928 L 1525 379.0191304632189 L 1526 378.2281513617717 L 1527 377.4456347535313 L 1528 376.6718592050317 L 1529 375.9071001710943 L 1530 375.1516298967694 L 1531 374.40571732042054 L 1532 373.6696279779849 L 1533 372.94362390844617 L 1534 372.227963560552 L 1535 371.52290170080875 L 1536 370.82868932278853 L 1537 370.14557355777754 L 1538 369.47379758680097 L 1539 368.8136005540531" stroke-linecap="round" stroke-linejoin="round" stroke-miterlimit="10" stroke-width="16"/></g></svg>